<svg width="1152" height="141" viewBox="0 0 1152 141" fill="none" xmlns="http://www.w3.org/2000/svg">
<path d="M1157 0H0.986328V148.457H1157.59L1157 0Z" fill="url(#paint0_linear)"/>
<path opacity="0.2" d="M1161.64 40.781L1162 24.7827H5.40485V32.7128L1161.42 49.9821L1161.57 43.8619C1156.14 43.7776 1151.93 43.1159 1151.93 42.3146C1151.93 41.5133 1156.17 40.8653 1161.64 40.781ZM514.465 37.3838C503.07 37.3838 493.822 36.6792 493.822 35.7964C493.822 34.9108 503.07 34.2076 514.465 34.2076C525.859 34.2076 535.108 34.9122 535.108 35.7964C535.108 36.6792 525.86 37.3838 514.465 37.3838ZM603.644 35.795C597.253 35.795 592.084 35.4344 592.084 34.9937C592.084 34.5641 597.253 34.2062 603.644 34.2062C610.035 34.2062 615.204 34.5654 615.204 34.9937C615.204 35.4344 610.035 35.795 603.644 35.795ZM807.879 40.7686C788.177 40.7686 772.224 39.6495 772.224 38.2818C772.224 36.9141 788.177 35.795 807.879 35.795C827.564 35.795 843.517 36.9141 843.517 38.2818C843.517 39.6495 827.564 40.7686 807.879 40.7686ZM1045.41 38.2818C1037.2 38.2818 1030.54 37.7292 1030.54 37.0384C1030.54 36.3477 1037.2 35.7964 1045.41 35.7964C1053.62 35.7964 1060.27 36.3477 1060.27 37.0384C1060.27 37.7292 1053.62 38.2818 1045.41 38.2818ZM1106.92 43.8771C1099.62 43.8771 1093.71 43.1863 1093.71 42.3159C1093.71 41.4594 1099.62 40.7686 1106.92 40.7686C1114.22 40.7686 1120.14 41.4594 1120.14 42.3159C1120.14 43.1863 1114.22 43.8771 1106.92 43.8771Z" fill="white"/>
<path opacity="0.5" d="M1158.01 0H539.066L1158.01 35V0Z" fill="white"/>
<path opacity="0.2" d="M890.137 145.09H1149.6L1149.45 127.423C1133.06 128.268 1112.59 128.775 1090.39 128.775C1036.59 128.775 992.955 125.804 992.955 122.129C992.955 118.457 1036.59 115.482 1090.39 115.482C1112.55 115.482 1133 115.989 1149.36 116.835L1149.23 100.897C1143.19 101.32 1133.87 101.585 1123.42 101.585C1105.17 101.585 1090.39 100.776 1090.39 99.7725C1090.39 98.7695 1105.17 97.9585 1123.42 97.9585C1133.86 97.9585 1143.17 98.2238 1149.22 98.6479L1149.02 75L-7 104.811V115.492C14.4028 115.577 31.3963 117.027 31.3963 118.802C31.3963 120.579 14.4028 122.029 -7 122.112V145.085H731.926C729.317 144.069 727.897 142.982 727.897 141.857C727.897 136.081 765.12 131.393 811.014 131.393C856.925 131.393 894.148 136.082 894.148 141.857C894.148 142.987 892.746 144.075 890.137 145.09ZM263.293 136.027C257.199 136.027 252.278 134.988 252.278 133.707C252.278 132.425 257.199 131.399 263.293 131.399C269.371 131.399 274.292 132.425 274.292 133.707C274.292 134.988 269.371 136.027 263.293 136.027ZM391.281 141.863C385.038 141.863 379.985 140.872 379.985 139.651C379.985 138.431 385.038 137.439 391.281 137.439C397.507 137.439 402.56 138.431 402.56 139.651C402.56 140.874 397.507 141.863 391.281 141.863ZM373.379 105.213C354.239 105.213 338.699 104.403 338.699 103.4C338.699 102.396 354.239 101.586 373.379 101.586C392.536 101.586 408.06 102.396 408.06 103.4C408.06 104.403 392.538 105.213 373.379 105.213ZM507.428 115.485C469.114 115.485 438.067 113.19 438.067 110.35C438.067 107.509 469.114 105.213 507.428 105.213C545.741 105.213 576.789 107.509 576.789 110.35C576.789 113.19 545.743 115.485 507.428 115.485ZM602.799 105.213C593.914 105.213 586.697 103.594 586.697 101.588C586.697 99.5833 593.914 97.9627 602.799 97.9627C611.684 97.9627 618.901 99.5833 618.901 101.588C618.901 103.594 611.684 105.213 602.799 105.213ZM767.812 90.7123C763.403 90.7123 759.819 90.0851 759.819 89.3004C759.819 88.5253 763.403 87.8981 767.812 87.8981C772.222 87.8981 775.789 88.5253 775.789 89.3004C775.789 90.0851 772.222 90.7123 767.812 90.7123ZM938.457 134.612C947.424 134.612 954.691 135.253 954.691 136.026C954.691 136.801 947.424 137.439 938.457 137.439C929.489 137.439 922.223 136.799 922.223 136.026C922.223 135.253 929.491 134.612 938.457 134.612ZM877.072 90.7123C860.36 90.7123 846.801 90.0851 846.801 89.3004C846.801 88.5253 860.36 87.8981 877.072 87.8981C893.801 87.8981 907.36 88.5253 907.36 89.3004C907.36 90.0851 893.801 90.7123 877.072 90.7123Z" fill="white"/>
<defs>
<linearGradient id="paint0_linear" x1="579" y1="139" x2="579.314" y2="-0.000353262" gradientUnits="userSpaceOnUse">
<stop offset="0.0190675" stop-color="white"/>
<stop offset="0.681967" stop-color="#1BCCC4"/>
</linearGradient>
</defs>
</svg>
