<svg width="786" height="207" viewBox="0 0 786 207" fill="none" xmlns="http://www.w3.org/2000/svg">
<path d="M789.37 0.737061H-9.49152V217.909H789.773L789.37 0.737061Z" fill="url(#paint0_linear)"/>
<path opacity="0.2" d="M792.572 60.3939L792.823 36.9907H-6.43811V48.5913L792.424 73.8538L792.526 64.9008C788.772 64.7775 785.861 63.8095 785.861 62.6373C785.861 61.4651 788.795 60.5172 792.572 60.3939ZM345.346 55.4243C337.472 55.4243 331.081 54.3936 331.081 53.1021C331.081 51.8067 337.472 50.778 345.346 50.778C353.22 50.778 359.612 51.8087 359.612 53.1021C359.612 54.3936 353.221 55.4243 345.346 55.4243ZM406.973 53.1001C402.556 53.1001 398.984 52.5726 398.984 51.9279C398.984 51.2994 402.556 50.776 406.973 50.776C411.389 50.776 414.961 51.3014 414.961 51.9279C414.961 52.5726 411.389 53.1001 406.973 53.1001ZM548.109 60.3757C534.494 60.3757 523.47 58.7387 523.47 56.7379C523.47 54.7372 534.494 53.1001 548.109 53.1001C561.712 53.1001 572.737 54.7372 572.737 56.7379C572.737 58.7387 561.712 60.3757 548.109 60.3757ZM712.252 56.7379C706.58 56.7379 701.981 55.9296 701.981 54.9191C701.981 53.9086 706.58 53.1021 712.252 53.1021C717.924 53.1021 722.523 53.9086 722.523 54.9191C722.523 55.9296 717.924 56.7379 712.252 56.7379ZM754.763 64.923C749.719 64.923 745.633 63.9125 745.633 62.6392C745.633 61.3862 749.719 60.3757 754.763 60.3757C759.807 60.3757 763.893 61.3862 763.893 62.6392C763.893 63.9125 759.807 64.923 754.763 64.923Z" fill="white"/>
<path opacity="0.5" d="M790.063 0.737061H362.346L790.063 51.9371V0.737061Z" fill="white"/>
<path opacity="0.2" d="M604.953 212.983H784.251L784.148 187.138C772.827 188.375 758.677 189.117 743.337 189.117C706.156 189.117 676.005 184.77 676.005 179.394C676.005 174.022 706.156 169.671 743.337 169.671C758.653 169.671 772.781 170.413 784.091 171.649L784 148.335C779.823 148.954 773.386 149.342 766.162 149.342C753.551 149.342 743.337 148.157 743.337 146.69C743.337 145.223 753.551 144.036 766.162 144.036C773.375 144.036 779.811 144.424 783.988 145.045L783.851 110.451L-15.0104 154.061V169.685C-0.220085 169.81 11.5232 171.93 11.5232 174.527C11.5232 177.126 -0.220085 179.248 -15.0104 179.37V212.975H495.622C493.819 211.49 492.837 209.899 492.837 208.254C492.837 199.804 518.561 192.947 550.275 192.947C582.002 192.947 607.725 199.806 607.725 208.254C607.725 209.907 606.756 211.498 604.953 212.983ZM171.775 199.725C167.564 199.725 164.163 198.206 164.163 196.332C164.163 194.457 167.564 192.955 171.775 192.955C175.975 192.955 179.375 194.457 179.375 196.332C179.375 198.206 175.975 199.725 171.775 199.725ZM260.22 208.262C255.906 208.262 252.414 206.813 252.414 205.026C252.414 203.242 255.906 201.791 260.22 201.791C264.523 201.791 268.015 203.242 268.015 205.026C268.015 206.815 264.523 208.262 260.22 208.262ZM247.849 154.649C234.622 154.649 223.883 153.464 223.883 151.997C223.883 150.528 234.622 149.344 247.849 149.344C261.088 149.344 271.815 150.528 271.815 151.997C271.815 153.464 261.089 154.649 247.849 154.649ZM340.483 169.675C314.006 169.675 292.551 166.318 292.551 162.163C292.551 158.008 314.006 154.649 340.483 154.649C366.96 154.649 388.415 158.008 388.415 162.163C388.415 166.318 366.961 169.675 340.483 169.675ZM406.389 154.649C400.249 154.649 395.262 152.28 395.262 149.346C395.262 146.413 400.249 144.043 406.389 144.043C412.529 144.043 417.516 146.413 417.516 149.346C417.516 152.28 412.529 154.649 406.389 154.649ZM520.421 133.436C517.374 133.436 514.897 132.519 514.897 131.371C514.897 130.237 517.374 129.32 520.421 129.32C523.468 129.32 525.933 130.237 525.933 131.371C525.933 132.519 523.468 133.436 520.421 133.436ZM638.344 197.656C644.541 197.656 649.562 198.594 649.562 199.723C649.562 200.857 644.541 201.791 638.344 201.791C632.147 201.791 627.126 200.855 627.126 199.723C627.126 198.594 632.148 197.656 638.344 197.656ZM595.925 133.436C584.375 133.436 575.006 132.519 575.006 131.371C575.006 130.237 584.375 129.32 595.925 129.32C607.485 129.32 616.855 130.237 616.855 131.371C616.855 132.519 607.485 133.436 595.925 133.436Z" fill="white"/>
<defs>
<linearGradient id="paint0_linear" x1="389.943" y1="204.074" x2="390.914" y2="0.740148" gradientUnits="userSpaceOnUse">
<stop offset="0.0190675" stop-color="white"/>
<stop offset="0.681967" stop-color="#1BCCC4"/>
</linearGradient>
</defs>
</svg>
